<svg class="svg-icon" style="width: 1em; height: 1em;vertical-align: middle;fill: currentColor;overflow: hidden;" viewBox="0 0 1024 1024" version="1.1" xmlns="http://www.w3.org/2000/svg"><path d="M552 832c-88.96 0-160.592-31.984-232.32-103.696A39301.68 39301.68 0 0 1 216 624H368v-80H80v288h80v-150.88c36.64 36.96 78.032 78.656 103.104 103.744C349.856 871.616 441.648 912 552 912c208.08 0 378.736-162.992 391.2-368h-80.416c-12.32 160.832-146.848 288-310.784 288zM864 192v150.88c-36.64-36.96-78.032-78.656-103.104-103.744C674.144 152.384 582.352 112 472 112 263.92 112 93.264 274.976 80.8 480h80.416c12.32-160.832 146.848-288 310.784-288 88.96 0 160.592 31.984 232.32 103.696 25.216 25.216 66.928 67.232 103.68 104.304H656v80h288V192h-80z" fill="#565D64" /></svg>